<?xml version="1.0" encoding="utf-8"?>
<!-- Generator: Adobe Illustrator 19.1.0, SVG Export Plug-In . SVG Version: 6.00 Build 0)  -->
<svg version="1.1" id="Layer_1" xmlns="http://www.w3.org/2000/svg" xmlns:xlink="http://www.w3.org/1999/xlink" x="0px" y="0px"
	 width="422.4px" height="171.3px" viewBox="-209 212 422.4 171.3" style="enable-background:new -209 212 422.4 171.3;"
	 xml:space="preserve">
<style type="text/css">
	.st0{fill:#E32F12;}
	.st1{fill:#222122;}
</style>
<g>
	<path class="st0" d="M204.4,236.2c1.5-3.9,2.7-7.8,2-10.8c-0.4-1.7-1.1-3.1-3.2-4.1c-1.3-0.6-2.3-0.6-3.7-0.3
		c-3.1,0.8-4.4,4.1-6.1,9.2l-5.6-3.3c-1.4-0.8-2.8-1-4.4-0.6c-2.7,0.7-4,3.8-3.4,6.2c0.4,1.8,1.2,2.9,2.4,4.2c2.1,2.2,5,4.4,6.7,5.7
		c0,0-1.4,3.3-2.1,5.1c-1,2.6-1.5,4.5-1.1,6.4c0.5,1.9,2.1,3.2,3.9,3.2c2.9,0,6-3,9.1-8.8c2.4,1.1,5.6,2.3,8.2,2.3
		c3.7,0,5.1-2.4,5.5-3.4c0.6-1.3,0.7-2.7,0.4-4C212.3,239.6,206.9,237.4,204.4,236.2"/>
	<path class="st1" d="M183.7,262.8c-6.3,1.6-10,16.9-15.1,18.2c-1.2,0.3-2.4-0.3-2.7-1.7c-1.2-4.9,5.4-19.2,1.8-33.9
		c-1.8-7.6-9.1-13.1-17.9-10.9c-3.8,1-6.5,2.8-8.6,4.8c-0.1-0.8-0.3-1.7-0.5-2.5c-2-8.3-8.1-14.8-16.7-12.6
		c-9.9,2.5-14.9,12.6-12.6,22.1c1.6,6.7,5.9,10.2,10.6,12.5l-0.2,0.2c0,4.1-1,8-2.8,11c-2.3-7.4-6.3-13.5-12-17.5
		c-6.4-4.7-14.3-5.8-21.9-3.9c-9.8,2.5-17.5,8.4-23,16.4c-7.7,11.3-10.8,26.5-8.2,40.7c-2.5,6.2-5.4,10.9-7.4,11.4
		c-1.3,0.3-1.5-0.3-1.6-0.9c-1.6-6.4,6-24.4,2.1-40.1c-1.9-7.6-7.4-13.6-17.3-11.1c-8.2,2.1-11,7.9-15.5,10.5
		c-0.3-2.2-0.7-4.3-1.1-6.3c-2-8.3-8.4-14.7-17.2-12.5c-9.9,2.5-15.3,12.7-12.9,22.8c1.9,7.7,7.3,11.8,13.2,14.1
		c1.7,13.8-10.4,38.8-15.2,40c-0.6,0.1-1.5-0.3-1.6-0.9c-1.4-5.8,7.1-24.7,3.3-40.4c-1.9-7.6-7.8-13.5-17.1-11.1
		c-7.9,2-10.7,6.2-14.3,8.5c-0.3-1.6-0.5-3.2-0.9-4.7c-2-8.3-8.3-14.8-16.9-12.6c-8.8,2.2-15.7,12-13.3,21.5
		c1.9,7.9,6.8,12.2,12.2,14.7c2.3,17-13.6,40.7-33.2,45.6c-11.8,3-22.9-1.6-26-14.2c-2.6-10.5,2.8-25.7,9.2-33.6
		c5.7,1.5,11.3,1.6,15.7,0.5c13.1-3.3,19.1-11.5,16.7-21c-1.6-6.4-8.2-12.1-19.5-9.3c-1.7,0.4-3.5,1-5.3,1.6
		c22.1-13.1,40.8-31.7,36.4-49.7c-2.4-10.5-12.8-20-31.9-15.2c-25.4,6.5-48,34.9-41.3,63.1c-0.4,0.1-0.9,0.2-1.3,0.4
		c-10.5,2.7-31.6,5.7-34.7-7c-2.1-8.8,5.8-14.2,10.2-15.4c10.5-2.7,15.6,2.2,20,1.1c2.5-0.6,3.3-2.9,2.7-5.4
		c-2.1-8.3-14.6-19.1-33.3-14.4c-17.4,4.4-29.3,20.2-24.9,38.5c4.8,19.6,30,28,61.1,20.2c2.4-0.6,5-1.4,7.6-2.3
		c0.8,1.1,1.7,2.1,2.6,3.1c-16,14.9-26.8,36.6-21.3,59.1c5.2,21.4,26.4,33.5,50,27.5c31.3-7.9,53.8-38,59.1-68
		c1.3,0.5,2.1,1.1,2.4,2.1c1.7,7-5.3,18.7-2.4,30.7c2,8.3,11.3,13.2,22.4,10.4c23.7-6,37.2-33.6,40.6-59c1.4,0.5,2.3,1,2.5,1.9
		c1.7,7-4.6,17.9-1.5,30.5c2.2,8.9,12.2,13,22.8,10.3c10.2-2.6,17.8-9.5,23.4-18.2c6.5,7.8,16.3,10.8,27.4,8
		c11.1-2.8,20.1-9.8,25.8-19.2c3.6-5.9,5.9-12.9,6.6-20.4c7.7-4.1,13.6-13.4,17.1-23.8c1.8,7.6-5.1,22.1-2.5,32.7
		c2,8.3,10.1,12.9,22,9.9c22.3-5.7,32.3-34.4,30-43.9C187,263.2,185.4,262.4,183.7,262.8 M-103.3,236.2c2.5-0.6,6-0.3,6.8,3
		c1.6,6.6-6.1,16.9-21.5,25.7C-119.1,249.5-110.8,238.1-103.3,236.2z M84.9,307.6c-1,0.3-1.9-0.6-2.3-2.3c-2-8,1.9-24,3.5-29.2
		c1.5,3.1,3.2,5.8,5.1,8c-0.5,6.1-1.8,12.3-2.5,15.2C87.5,304.4,86.5,307.2,84.9,307.6z"/>
</g>
</svg>
